<?xml version="1.0" standalone="no"?>
<!DOCTYPE svg PUBLIC "-//W3C//DTD SVG 20010904//EN"
 "http://www.w3.org/TR/2001/REC-SVG-20010904/DTD/svg10.dtd">
<svg version="1.0" xmlns="http://www.w3.org/2000/svg"
 width="362.000000pt" height="180.000000pt" viewBox="0 0 362.000000 180.000000"
 preserveAspectRatio="xMidYMid meet">

<g transform="translate(0.000000,180.000000) scale(0.100000,-0.100000)"
fill="#000000" stroke="none">
<path d="M1140 1352 c0 -6 7 -13 16 -16 20 -8 16 -39 -24 -201 l-27 -110 -47
-6 c-25 -4 -86 -18 -135 -32 -133 -37 -143 -39 -138 -25 2 7 9 39 15 71 6 31
15 57 20 57 4 0 4 -17 -1 -37 -11 -50 -10 -74 2 -44 21 52 31 172 19 221 -12
50 -24 60 -91 75 -33 8 -47 -10 -19 -25 27 -15 26 -46 -11 -220 -52 -245 -64
-404 -33 -448 17 -24 39 -29 50 -10 5 8 2 9 -9 5 -14 -5 -15 -2 -6 19 5 14 6
30 3 35 -3 6 -1 15 4 22 5 7 10 19 11 27 9 87 29 162 42 154 5 -3 9 2 9 11 0
24 36 59 55 51 10 -3 14 -2 9 5 -4 6 1 10 12 8 11 -1 32 3 47 9 16 7 40 12 55
12 15 0 47 5 72 11 74 17 80 18 80 10 0 -5 -15 -13 -32 -19 -18 -5 -26 -10
-17 -11 15 -1 15 -6 3 -48 -7 -27 -23 -110 -35 -186 -23 -152 -20 -216 12
-248 26 -26 40 -16 29 21 -6 22 -5 32 6 38 9 5 19 46 29 122 28 223 46 303 74
334 18 19 22 30 14 33 -16 6 -16 25 -1 75 7 23 14 34 19 27 11 -18 31 97 25
142 -7 52 -21 76 -48 84 -13 4 -31 9 -40 11 -10 3 -18 1 -18 -4z m-310 -202
c-7 -53 -8 -53 -9 -13 -1 38 7 78 14 71 2 -2 0 -28 -5 -58z m-77 -297 c-7 -2
-21 -2 -30 0 -10 3 -4 5 12 5 17 0 24 -2 18 -5z"/>
<path d="M2210 1274 c-25 -82 -25 -91 1 -105 34 -18 52 10 57 83 3 55 1 65
-17 75 -19 12 -22 9 -41 -53z"/>
<path d="M1946 1188 c-2 -7 -16 -47 -30 -88 -55 -161 -96 -313 -96 -358 0
-102 53 -146 124 -103 59 37 59 50 1 20 -31 -16 -58 -29 -59 -29 -2 0 -6 9 -9
20 -3 13 0 20 10 20 8 0 26 9 40 20 l26 20 -32 -6 c-28 -6 -31 -4 -31 17 0 13
18 94 41 179 54 209 60 245 49 275 -10 27 -28 33 -34 13z"/>
<path d="M2756 1133 c-82 -85 -156 -270 -141 -352 17 -90 43 -92 130 -11 35
33 67 60 70 60 37 0 -82 -114 -133 -128 l-37 -10 42 -1 c31 -1 49 5 71 24 39
33 52 32 52 -4 0 -40 9 -61 27 -61 10 0 11 5 5 16 -14 24 -3 66 16 59 13 -5
13 -3 1 11 -11 13 -11 18 -1 21 6 3 12 11 12 19 0 9 -4 13 -9 9 -13 -7 5 55
19 69 8 8 9 4 2 -14 -5 -14 -6 -34 -2 -45 6 -16 8 -11 12 20 3 22 9 51 13 64
7 21 6 22 -13 12 -29 -15 -37 -14 -22 4 7 8 22 15 34 16 11 1 -1 8 -28 16 -48
15 -110 11 -121 -7 -6 -9 17 -35 37 -43 8 -3 -8 -27 -44 -63 l-57 -58 -18 21
c-19 22 -22 71 -7 143 4 19 6 42 5 50 -2 8 1 12 5 7 4 -4 20 13 36 38 15 25
33 45 40 45 6 0 9 3 5 6 -6 6 45 54 57 54 3 0 3 -7 0 -15 -4 -8 -12 -15 -19
-15 -8 0 -17 -5 -21 -12 -5 -8 -2 -9 10 -5 15 6 15 4 -2 -21 -25 -35 -67 -120
-76 -152 -4 -14 13 11 37 55 24 44 56 92 71 108 30 30 61 35 70 12 7 -20 26
-19 26 1 0 25 -68 104 -89 104 -10 0 -39 -21 -65 -47z"/>
<path d="M2310 1119 c0 -34 -27 -216 -46 -309 -3 -19 -2 -22 6 -10 5 9 10 10
10 3 0 -21 -12 -43 -21 -37 -5 3 -9 -5 -9 -18 0 -16 10 -30 30 -41 30 -18 37
-14 21 12 -13 20 7 71 25 64 9 -3 14 1 14 12 0 9 -4 13 -10 10 -19 -12 -18 -8
57 155 22 47 47 91 56 99 20 16 23 2 5 -19 -9 -10 -6 -9 7 1 41 33 48 31 19
-4 -16 -20 -31 -32 -33 -26 -1 5 -9 2 -16 -8 -8 -10 -9 -20 -4 -24 5 -3 -2
-30 -16 -63 -38 -86 -30 -81 20 13 53 101 70 121 61 71 -3 -19 -9 -75 -12
-125 -7 -108 8 -168 44 -173 21 -3 22 0 24 65 1 37 2 79 2 93 0 14 2 27 5 30
11 9 41 137 41 175 0 43 -36 85 -75 85 -29 0 -78 -28 -70 -40 8 -12 -21 -31
-37 -25 -9 4 -20 17 -26 29 -6 13 -24 28 -41 34 l-31 11 0 -40z m246 -66 c-12
-73 -16 -98 -21 -118 -2 -11 -5 -64 -6 -117 -1 -59 -5 -98 -12 -98 -15 0 1
232 21 308 18 69 28 82 18 25z"/>
<path d="M1630 1089 c-43 -60 -93 -205 -115 -336 -5 -35 -4 -43 14 -52 32 -18
50 -2 67 58 23 83 94 138 94 74 0 -68 46 -154 66 -122 5 8 3 10 -6 4 -10 -6
-11 -3 -5 16 4 13 11 62 15 109 4 47 11 98 15 114 10 38 -13 137 -38 159 -35
31 -73 22 -107 -24z m38 -35 c-11 -42 -2 -57 18 -30 20 28 24 18 17 -47 -4
-42 -11 -61 -25 -68 -27 -15 -39 -3 -27 28 10 26 4 63 -11 63 -9 0 -8 -32 1
-40 9 -7 -8 -50 -20 -50 -5 0 -7 10 -3 22 3 14 2 19 -7 14 -6 -4 -9 -11 -6
-15 2 -5 -4 -18 -15 -31 l-19 -22 6 39 c9 57 71 173 93 173 5 0 4 -16 -2 -36z
m-48 -204 c-8 -5 -22 -10 -30 -10 -13 0 -13 1 0 10 8 5 22 10 30 10 13 0 13
-1 0 -10z m-49 -57 c-9 -17 -10 -17 -16 0 -4 9 -4 25 0 35 6 16 7 16 16 0 7
-12 7 -24 0 -35z m-14 -70 c-3 -10 -5 -2 -5 17 0 19 2 27 5 18 2 -10 2 -26 0
-35z"/>
<path d="M1372 1093 c-51 -35 -76 -67 -107 -137 -31 -70 -41 -146 -25 -186 14
-33 33 -43 70 -34 65 15 72 12 25 -10 -38 -19 -45 -25 -26 -25 26 -1 132 52
154 78 8 9 18 27 22 41 7 24 5 23 -23 -7 -17 -18 -34 -33 -37 -33 -8 0 35 62
49 72 6 4 14 4 18 2 4 -3 5 2 2 11 -6 14 -10 13 -33 -8 -39 -37 -125 -87 -150
-87 -16 0 -21 6 -21 28 0 36 13 54 32 47 26 -10 75 22 118 76 44 55 55 86 45
118 -7 24 -53 81 -64 81 -5 0 -26 -12 -49 -27z m68 -18 c0 -2 -14 -12 -31 -20
-17 -9 -28 -19 -25 -22 3 -3 -5 -20 -18 -37 -31 -42 -43 -69 -14 -31 57 74 74
88 96 81 27 -9 28 -26 3 -75 -23 -43 -39 -58 -63 -58 -14 0 -15 3 -7 14 6 7
16 10 23 6 6 -3 8 -3 4 2 -4 4 4 23 18 41 14 18 24 39 22 45 -2 7 -14 -3 -25
-22 -12 -19 -41 -52 -64 -74 -35 -34 -41 -36 -36 -17 6 24 -3 28 -21 10 -9 -9
-12 -8 -12 5 0 15 24 62 40 77 3 3 10 14 16 25 13 25 94 68 94 50z"/>
<path d="M2137 963 c-44 -234 -44 -254 -2 -265 19 -4 20 1 22 86 1 50 7 105
13 121 8 23 9 9 5 -64 -3 -52 -3 -92 -1 -90 10 10 46 218 46 265 0 43 -4 56
-22 68 -12 9 -25 16 -29 16 -4 0 -18 -62 -32 -137z m50 -15 c-3 -8 -6 -5 -6 6
-1 11 2 17 5 13 3 -3 4 -12 1 -19z"/>
<path d="M2386 925 c-9 -26 -7 -32 5 -12 6 10 9 21 6 23 -2 3 -7 -2 -11 -11z"/>
<path d="M830 870 c0 -5 7 -7 15 -4 8 4 15 8 15 10 0 2 -7 4 -15 4 -8 0 -15
-4 -15 -10z"/>
<path d="M2347 773 c-4 -3 -7 -16 -6 -27 0 -19 1 -19 10 3 10 24 8 36 -4 24z"/>
<path d="M2028 735 c-31 -27 -34 -35 -14 -35 13 0 51 48 44 55 -2 2 -15 -7
-30 -20z"/>
</g>
</svg>
